<svg width="22" height="22" viewBox="0 0 22 22" fill="none" xmlns="http://www.w3.org/2000/svg">
<rect width="22" height="22" rx="11" fill="#DCEEF2"/>
<path fill-rule="evenodd" clip-rule="evenodd" d="M12.6715 8.84399C13.251 8.84399 13.7207 8.96212 13.7207 9.56306L13.7207 15.6446C13.7207 16.2455 13.251 16.3381 12.6715 16.3381C12.0921 16.3381 11.6224 16.2455 11.6224 15.6446L11.6224 9.56306C11.6224 8.96212 12.0921 8.84399 12.6715 8.84399Z" fill="#222222"/>
<path d="M13.6591 6.70209C13.6591 7.25744 13.2089 7.70764 12.6535 7.70764C12.0982 7.70764 11.6479 7.25744 11.6479 6.70209C11.6479 6.14674 12.0982 5.69653 12.6535 5.69653C13.2089 5.69653 13.6591 6.14674 13.6591 6.70209Z" fill="#222222"/>
<path fill-rule="evenodd" clip-rule="evenodd" d="M9.26174 8.84399C9.82048 8.84399 10.2734 8.96212 10.2734 9.56306L10.2734 15.6446C10.2734 16.2455 9.82048 16.3381 9.26174 16.3381C8.70299 16.3381 8.25004 16.2455 8.25004 15.6446L8.25004 9.56306C8.25004 8.96212 8.70299 8.84399 9.26174 8.84399Z" fill="#222222"/>
<path d="M10.266 6.70209C10.266 7.25744 9.81579 7.70764 9.26044 7.70764C8.70509 7.70764 8.25488 7.25744 8.25488 6.70209C8.25488 6.14674 8.70509 5.69653 9.26044 5.69653C9.81579 5.69653 10.266 6.14674 10.266 6.70209Z" fill="#222222"/>
</svg>